<svg id="Capa_1" enable-background="new 0 0 512.002 512.002" height="512" viewBox="0 0 512.002 512.002" width="512" xmlns="http://www.w3.org/2000/svg"><g clip-rule="evenodd" fill-rule="evenodd"><circle cx="256.001" cy="256.001" fill="#ffda8f" r="206.001"/><path d="m256.001 50c113.771 0 206.001 92.23 206.001 206.001s-92.23 206.001-206.001 206.001-206.001-92.23-206.001-206.001 92.23-206.001 206.001-206.001zm246.001 206.001c0-135.863-110.138-246.001-246.001-246.001s-246.001 110.138-246.001 246.001 110.138 246.001 246.001 246.001 246.001-110.138 246.001-246.001z" fill="#ffc144"/><path d="m276.001 216.036c.091-22.157 17.8-40.035 40-40.035 22.095 0 40 17.905 40 40 0 18.166-12.071 33.954-29.627 38.659-10.657 2.848-16.988 13.796-14.141 24.453 2.848 10.657 13.796 16.988 24.453 14.141 34.905-9.353 59.315-41.107 59.315-77.252 0-44.179-35.822-80-80-80-23.045 0-44.772 9.831-60 27.088-15.232-17.257-36.951-27.088-60-27.088-44.178 0-80 35.822-80 80 0 36.146 24.41 67.899 59.315 77.252 10.657 2.848 21.605-3.484 24.453-14.141s-3.484-21.605-14.141-24.453c-17.556-4.704-29.627-20.493-29.627-38.659 0-22.095 17.905-40 40-40 22.078 0 39.976 17.878 40 39.956v160.043c0 11.046 8.954 20 20 20s20-8.954 20-20z" fill="#ffc144"/></g><path d="m256.001 512.001c-68.38 0-132.668-26.629-181.02-74.98s-74.981-112.64-74.981-181.02c0-52.036 15.533-102.129 44.92-144.862 3.13-4.551 9.356-5.703 13.906-2.574 4.551 3.13 5.703 9.355 2.573 13.906-27.083 39.385-41.399 85.559-41.399 133.53 0 130.131 105.87 236 236.001 236s236.001-105.869 236.001-236-105.87-236.001-236.001-236.001c-47.967 0-94.143 14.317-133.536 41.404-4.552 3.127-10.777 1.977-13.906-2.574s-1.977-10.777 2.574-13.906c42.742-29.389 92.837-44.924 144.868-44.924 68.38 0 132.668 26.629 181.02 74.98 48.353 48.353 74.981 112.64 74.981 181.021 0 68.38-26.628 132.668-74.981 181.02-48.352 48.352-112.64 74.98-181.02 74.98z"/><path d="m256.001 472.001c-57.696 0-111.938-22.468-152.736-63.265s-63.265-95.039-63.265-152.735 22.468-111.938 63.265-152.736c40.798-40.797 95.04-63.265 152.736-63.265s111.938 22.468 152.736 63.265c40.797 40.798 63.265 95.04 63.265 152.736 0 41.127-11.613 81.138-33.584 115.707-2.961 4.661-9.143 6.039-13.803 3.075-4.661-2.962-6.039-9.143-3.076-13.804 19.929-31.356 30.463-67.657 30.463-104.979 0-108.074-87.926-196-196.001-196s-196.001 87.926-196.001 196.001c0 108.074 87.926 196 196.001 196 37.323 0 73.622-10.532 104.973-30.458 4.663-2.963 10.841-1.586 13.804 3.075s1.586 10.842-3.075 13.804c-34.564 21.968-74.573 33.579-115.702 33.579z"/><path d="m82.052 92.053c-2.72 0-5.429-1.102-7.401-3.271-3.715-4.087-3.417-10.409.67-14.124l.005-.005c4.086-3.714 10.41-3.413 14.126.673 3.715 4.087 3.414 10.411-.673 14.126-1.916 1.742-4.326 2.601-6.727 2.601z"/><path d="m401.656 411.667c-2.257 0-4.525-.76-6.395-2.316-4.243-3.536-4.818-9.839-1.283-14.081l.005-.006c3.536-4.242 9.841-4.816 14.084-1.281 4.243 3.536 4.816 9.842 1.28 14.084-1.977 2.374-4.825 3.6-7.691 3.6z"/><path d="m256.001 406.001c-16.542 0-30-13.458-30-30v-160.043c-.018-16.513-13.476-29.955-30-29.955-16.542 0-30 13.458-30 30 0 13.567 9.132 25.49 22.208 28.997 15.967 4.267 25.487 20.729 21.22 36.695-2.067 7.735-7.022 14.202-13.953 18.211-6.931 4.007-15.007 5.076-22.743 3.01-39.294-10.528-66.733-46.268-66.733-86.913 0-49.627 40.374-90.001 90-90.001 22.237 0 43.583 8.25 59.999 22.926 16.413-14.676 37.759-22.926 60-22.926 49.626 0 90 40.374 90 90.001 0 40.646-27.439 76.385-66.727 86.911-7.741 2.069-15.818.999-22.749-3.008-6.931-4.009-11.886-10.476-13.953-18.211-4.267-15.967 5.253-32.429 21.22-36.695 13.074-3.503 22.209-15.428 22.209-28.997 0-16.542-13.458-30-30-30-16.753 0-29.931 13.211-30 30.075v159.924c.002 16.541-13.456 29.999-29.998 29.999zm-60-239.999c27.54 0 49.97 22.405 50 49.944v160.055c0 5.514 4.486 10 10 10s10-4.486 10-10v-159.964c.114-27.607 22.543-50.034 50-50.034 27.57 0 50 22.43 50 50 0 22.605-15.231 42.474-37.039 48.317-5.32 1.422-8.488 6.899-7.068 12.213 1.42 5.313 6.897 8.481 12.21 7.061 30.553-8.187 51.896-35.981 51.896-67.591 0-38.599-31.402-70.001-70-70.001-20.072 0-39.208 8.641-52.502 23.705-1.898 2.151-4.629 3.384-7.498 3.384s-5.6-1.231-7.498-3.383c-13.297-15.065-32.434-23.706-52.502-23.706-38.599 0-70 31.402-70 70.001 0 31.609 21.343 59.404 51.903 67.593 5.308 1.415 10.784-1.749 12.204-7.063 1.42-5.313-1.748-10.791-7.061-12.211-.002-.001-.004-.001-.007-.002-21.808-5.843-37.039-25.712-37.039-48.317.001-27.571 22.431-50.001 50.001-50.001z"/></svg>