<svg id="Capa_1" enable-background="new 0 0 512.002 512.002" height="512" viewBox="0 0 512.002 512.002" width="512" xmlns="http://www.w3.org/2000/svg"><g clip-rule="evenodd" fill-rule="evenodd"><circle cx="256.001" cy="256.001" fill="#e9aacb" r="206.001"/><path d="m256.001 50c113.771 0 206.001 92.23 206.001 206.001s-92.23 206.001-206.001 206.001-206.001-92.23-206.001-206.001 92.23-206.001 206.001-206.001zm246.001 206.001c0-135.863-110.138-246.001-246.001-246.001s-246.001 110.138-246.001 246.001 110.138 246.001 246.001 246.001 246.001-110.138 246.001-246.001z" fill="#db71a9"/><path d="m373.38 138.622c-30.041-30.041-71.542-48.622-117.379-48.622-14.502 0-28.938 1.925-42.944 5.678-13.907 3.727-27.379 9.298-40.056 16.617-9.535 5.523-12.788 17.73-7.266 27.266 5.523 9.535 17.73 12.788 27.266 7.265 9.517-5.495 19.732-9.704 30.369-12.554 10.537-2.823 21.505-4.271 32.632-4.271 34.796 0 66.297 14.103 89.098 36.903 5.996 5.996 11.389 12.595 16.084 19.696-3.005-.394-6.069-.598-9.181-.598-19.328 0-36.828 7.836-49.496 20.504s-20.504 30.168-20.504 49.496c0 19.327 7.836 36.828 20.504 49.496s30.168 20.504 49.496 20.504 36.828-7.836 49.496-20.504c45.035-45.037 8.273-130.484-28.119-166.876zm-21.378 87.379c8.286 0 15.787 3.358 21.215 8.785 5.427 5.428 8.785 12.928 8.785 21.215 0 8.286-3.358 15.787-8.785 21.215-5.428 5.427-12.929 8.785-21.215 8.785s-15.787-3.358-21.215-8.785-8.785-12.929-8.785-21.215 3.358-15.787 8.785-21.215c5.428-5.427 12.929-8.785 21.215-8.785z" fill="#db71a9"/><path d="m209.496 206.505c-12.668-12.668-30.169-20.504-49.496-20.504-19.328 0-36.828 7.836-49.496 20.504-44.517 44.517-9.582 129.175 28.118 166.875 30.041 30.041 71.541 48.622 117.379 48.622 14.502 0 28.938-1.925 42.944-5.678 13.907-3.726 27.379-9.298 40.056-16.617 9.535-5.523 12.788-17.73 7.266-27.266-5.523-9.536-17.73-12.788-27.266-7.266-9.517 5.495-19.731 9.704-30.369 12.554-10.537 2.823-21.505 4.272-32.632 4.272-34.796 0-66.297-14.103-89.098-36.903-5.996-5.996-11.389-12.594-16.084-19.695 3.005.394 6.069.598 9.181.598 19.327 0 36.828-7.836 49.496-20.504 12.669-12.668 20.505-30.169 20.505-49.496 0-19.328-7.836-36.828-20.504-49.496zm-49.496 19.496c8.286 0 15.787 3.358 21.215 8.785 5.428 5.428 8.785 12.928 8.785 21.215 0 8.286-3.358 15.787-8.785 21.215s-12.929 8.785-21.215 8.785-15.787-3.358-21.215-8.785c-5.427-5.427-8.785-12.929-8.785-21.215s3.358-15.787 8.785-21.215c5.428-5.427 12.929-8.785 21.215-8.785z" fill="#db71a9"/></g><path d="m188.286 227.715c-7.555-7.554-17.6-11.714-28.286-11.714s-20.731 4.16-28.286 11.714c-7.554 7.555-11.714 17.6-11.714 28.286s4.16 20.731 11.714 28.286c7.555 7.554 17.6 11.714 28.286 11.714s20.731-4.16 28.286-11.714c7.554-7.554 11.714-17.6 11.714-28.286s-4.16-20.731-11.714-28.286zm-14.142 42.43c-3.777 3.776-8.8 5.856-14.144 5.856s-10.367-2.08-14.144-5.856c-3.776-3.777-5.856-8.8-5.856-14.144s2.08-10.367 5.856-14.144c3.777-3.776 8.8-5.856 14.144-5.856s10.367 2.08 14.144 5.856c3.776 3.777 5.856 8.8 5.856 14.144s-2.08 10.367-5.856 14.144z"/><path d="m240 256.001c0-21.367-8.322-41.457-23.433-56.567-15.111-15.111-35.2-23.433-56.567-23.433s-41.456 8.322-56.567 23.433c-22.346 22.347-29.236 56.262-19.401 95.497 7.842 31.282 26.05 64.051 47.519 85.521 33.243 33.243 77.44 51.551 124.45 51.551 15.307 0 30.625-2.025 45.532-6.019 14.805-3.967 29.094-9.894 42.48-17.623 14.292-8.277 19.185-26.639 10.907-40.931s-26.64-19.186-40.931-10.907c-8.713 5.029-18.115 8.915-27.944 11.548-9.737 2.608-19.845 3.931-30.044 3.931-30.987 0-60.118-12.065-82.026-33.975-.92-.92-1.826-1.856-2.715-2.808 17.097-2.394 32.884-10.228 45.308-22.651 15.11-15.11 23.432-35.2 23.432-56.567zm-80 60c-2.632 0-5.284-.172-7.882-.513-3.883-.507-7.705 1.296-9.78 4.617s-2.021 7.547.139 10.814c5.045 7.63 10.884 14.78 17.354 21.251 25.686 25.687 59.839 39.833 96.169 39.833 11.946 0 23.795-1.552 35.22-4.612 11.522-3.087 22.551-7.648 32.78-13.554.004-.002.008-.004.012-.007 4.748-2.751 10.85-1.125 13.601 3.624 1.332 2.3 1.689 4.982 1.004 7.551s-2.328 4.717-4.617 6.042c-11.862 6.849-24.527 12.103-37.645 15.618-13.219 3.541-26.796 5.337-40.356 5.337-41.667 0-80.842-16.228-110.308-45.693-36.87-36.869-66.153-114.697-28.118-152.732 11.333-11.333 26.4-17.575 42.425-17.575s31.092 6.242 42.425 17.575 17.575 26.4 17.575 42.425-6.242 31.092-17.575 42.425c-11.331 11.332-26.398 17.574-42.423 17.574z"/><path d="m323.716 227.715c-7.554 7.554-11.714 17.6-11.714 28.286s4.16 20.731 11.714 28.286c7.555 7.554 17.6 11.714 28.286 11.714s20.731-4.16 28.286-11.714c7.554-7.554 11.714-17.6 11.714-28.286s-4.16-20.731-11.714-28.286c-7.555-7.554-17.6-11.714-28.286-11.714s-20.731 4.16-28.286 11.714zm48.286 28.286c0 5.344-2.08 10.367-5.856 14.144-3.777 3.776-8.8 5.856-14.144 5.856s-10.367-2.08-14.144-5.856c-3.776-3.777-5.856-8.8-5.856-14.144s2.08-10.367 5.856-14.144c3.777-3.776 8.8-5.856 14.144-5.856s10.367 2.08 14.144 5.856c3.776 3.777 5.856 8.8 5.856 14.144z"/><path d="m427.66 216.328c-8.021-31.194-26.11-63.678-47.208-84.777-33.244-33.243-77.441-51.551-124.451-51.551-15.307 0-30.625 2.025-45.532 6.019-14.804 3.967-29.092 9.894-42.48 17.623-6.923 4.01-11.871 10.476-13.931 18.207s-.986 15.801 3.023 22.724c4.01 6.923 10.476 11.871 18.207 13.931 7.73 2.06 15.801.986 22.712-3.017 8.716-5.032 18.123-8.92 27.957-11.555 9.736-2.608 19.844-3.931 30.043-3.931 30.987 0 60.118 12.065 82.026 33.975.92.92 1.825 1.856 2.715 2.808-17.097 2.394-32.884 10.228-45.308 22.651-15.111 15.111-23.433 35.2-23.433 56.567s8.322 41.457 23.433 56.567c15.111 15.111 35.2 23.433 56.567 23.433s41.456-8.322 56.567-23.433c22.489-22.487 29.268-56.666 19.093-96.241zm-33.233 82.098c-11.333 11.333-26.4 17.575-42.425 17.575s-31.092-6.242-42.425-17.575-17.575-26.4-17.575-42.425 6.242-31.092 17.575-42.425 26.4-17.575 42.425-17.575c2.632 0 5.284.173 7.88.513 3.883.51 7.706-1.294 9.781-4.616 2.075-3.321 2.021-7.548-.139-10.814-5.045-7.631-10.884-14.782-17.354-21.252-25.687-25.686-59.84-39.832-96.169-39.832-11.946 0-23.795 1.552-35.22 4.612-11.523 3.088-22.552 7.648-32.792 13.561-2.3 1.333-4.982 1.689-7.551 1.004s-4.717-2.328-6.049-4.629c-1.333-2.3-1.689-4.982-1.004-7.551.684-2.569 2.328-4.717 4.616-6.042 11.863-6.849 24.528-12.104 37.645-15.618 13.219-3.541 26.796-5.337 40.356-5.337 41.667 0 80.842 16.228 110.308 45.693 31.556 31.557 69.025 111.825 28.117 152.733z"/><path d="m437.021 74.981c-48.352-48.353-112.64-74.981-181.02-74.981-52.03 0-102.125 15.534-144.868 44.924-4.551 3.129-5.704 9.355-2.575 13.906 3.129 4.552 9.355 5.703 13.906 2.575 39.395-27.088 85.571-41.405 133.537-41.405 130.131 0 236.001 105.87 236.001 236.001s-105.87 236.001-236.001 236.001-236.001-105.87-236.001-236.001c0-47.971 14.316-94.146 41.4-133.53 3.129-4.551 1.978-10.777-2.573-13.906-4.551-3.13-10.777-1.977-13.906 2.573-29.388 42.734-44.921 92.827-44.921 144.863 0 68.38 26.629 132.668 74.981 181.02 48.352 48.353 112.64 74.981 181.02 74.981s132.668-26.628 181.02-74.981c48.353-48.352 74.981-112.64 74.981-181.02s-26.628-132.668-74.981-181.02z"/><path d="m424.615 374.783c4.66 2.963 10.842 1.586 13.803-3.076 21.971-34.568 33.584-74.579 33.584-115.707 0-57.696-22.468-111.938-63.265-152.736s-95.04-63.264-152.736-63.264-111.938 22.468-152.736 63.265-63.265 95.04-63.265 152.736 22.468 111.938 63.265 152.736 95.04 63.265 152.736 63.265c41.129 0 81.138-11.612 115.701-33.58 4.661-2.962 6.038-9.143 3.075-13.804s-9.143-6.037-13.804-3.075c-31.351 19.926-67.65 30.459-104.973 30.459-108.074 0-196-87.926-196-196.001s87.926-196.001 196.001-196.001 196.001 87.926 196.001 196.001c0 37.321-10.534 73.623-30.463 104.979-2.963 4.661-1.585 10.841 3.076 13.803z"/><path d="m82.048 92.054c2.561 0 5.122-.978 7.075-2.931 3.905-3.905 3.905-10.237 0-14.142s-10.236-3.905-14.142 0l-.005.005c-3.905 3.905-3.903 10.234.002 14.139 1.953 1.953 4.511 2.929 7.07 2.929z"/><path d="m394.266 394.939-.005.005c-3.715 4.086-3.411 10.408.675 14.123 1.915 1.741 4.322 2.6 6.722 2.6 2.721 0 5.432-1.104 7.406-3.275 3.715-4.086 3.414-10.411-.673-14.126-4.085-3.715-10.41-3.413-14.125.673z"/></svg>