<svg id="Capa_1" enable-background="new 0 0 512.002 512.002" height="512" viewBox="0 0 512.002 512.002" width="512" xmlns="http://www.w3.org/2000/svg"><g clip-rule="evenodd" fill-rule="evenodd"><circle cx="256.001" cy="256.001" fill="#b8ecbb" r="206.001"/><path d="m256.001 50c113.771 0 206.001 92.23 206.001 206.001s-92.23 206.001-206.001 206.001-206.001-92.23-206.001-206.001 92.23-206.001 206.001-206.001zm246.001 206.001c0-135.862-110.138-246.001-246.001-246.001s-246.001 110.139-246.001 246.001 110.138 246.001 246.001 246.001 246.001-110.138 246.001-246.001z" fill="#88df8e"/><path d="m347.363 261.368c2.833-.373 5.652-.935 8.437-1.681 4.863-1.303 9.668-3.245 14.311-5.798.449-.217.894-.452 1.332-.706 15.481-8.938 25.873-23.301 30.159-39.298 9.231-34.453-11.344-70.059-45.802-79.291-34.418-9.222-70.067 11.375-79.292 45.802-3.593 13.412-2.869 28.001 2.774 41.52h-45.662c-8.754 0-16.193 5.624-18.904 13.456l-33.971 77.743-34.593-79.168c-3.268-7.499-10.592-11.973-18.281-11.977l-20.109-.054c-11.046 0-20 8.954-20 20s8.954 20 20 20h7.085l47.619 108.974c1.941 4.456 5.504 8.218 10.311 10.313 10.096 4.401 21.849-.216 26.25-10.313l47.617-108.975h55.071l34.843 60.483c3.417 5.918 4.1 12.707 2.441 18.897-3.566 13.309-17.09 21.082-30.386 17.52-8.385-2.247-14.798-8.491-17.309-16.671-.523-1.704-.857-3.538-.996-5.463-.777-11.002-10.326-19.292-21.328-18.516s-19.292 10.326-18.516 21.328c.346 4.793 1.255 9.615 2.715 14.37 6.492 21.147 23.543 37.764 45.121 43.546 34.475 9.237 70.065-11.367 79.292-45.801 4.252-15.868 2.459-33.384-6.374-48.824zm-22.728-39.452-7.091-12.309c-3.418-5.919-4.1-12.708-2.442-18.898 3.567-13.312 17.108-21.078 30.385-17.52 13.314 3.567 21.085 17.08 17.52 30.385-2.943 10.984-12.691 18.343-23.953 18.343h-14.419z" fill="#88df8e"/></g><path d="m256.001 512.001c-68.38 0-132.668-26.629-181.02-74.98-48.352-48.353-74.981-112.64-74.981-181.02 0-52.036 15.533-102.129 44.92-144.862 3.129-4.552 9.355-5.701 13.906-2.574 4.551 3.13 5.703 9.355 2.573 13.906-27.083 39.385-41.399 85.559-41.399 133.53 0 130.131 105.87 236 236.001 236s236.001-105.869 236.001-236-105.87-236.001-236.001-236.001c-47.967 0-94.143 14.317-133.536 41.404-4.551 3.127-10.776 1.978-13.906-2.574-3.129-4.551-1.977-10.777 2.574-13.906 42.742-29.389 92.837-44.924 144.868-44.924 68.38 0 132.668 26.629 181.02 74.98 48.353 48.353 74.981 112.64 74.981 181.021 0 68.38-26.628 132.668-74.981 181.02-48.352 48.352-112.64 74.98-181.02 74.98z"/><path d="m256.001 472.002c-57.696 0-111.938-22.468-152.736-63.266-40.797-40.796-63.265-95.039-63.265-152.735s22.468-111.938 63.265-152.736c40.798-40.797 95.04-63.265 152.736-63.265s111.938 22.468 152.736 63.265c40.797 40.798 63.265 95.04 63.265 152.736 0 41.127-11.613 81.138-33.584 115.707-2.962 4.661-9.144 6.038-13.803 3.075-4.661-2.962-6.039-9.143-3.076-13.804 19.929-31.356 30.463-67.658 30.463-104.979 0-108.074-87.926-196-196.001-196s-196.001 87.926-196.001 196.001 87.926 196.001 196.001 196.001c37.322 0 73.621-10.532 104.973-30.459 4.663-2.963 10.841-1.586 13.804 3.075s1.586 10.842-3.075 13.804c-34.565 21.969-74.574 33.58-115.702 33.58z"/><path d="m82.045 92.054c-2.414 0-4.834-.868-6.753-2.628-4.071-3.731-4.349-10.054-.617-14.125l.005-.006c3.731-4.07 10.057-4.347 14.129-.614 4.071 3.731 4.346 10.057.614 14.128-1.972 2.152-4.671 3.245-7.378 3.245z"/><path d="m401.656 411.667c-2.257 0-4.525-.76-6.395-2.316-4.243-3.536-4.818-9.839-1.283-14.081l.005-.006c3.536-4.242 9.841-4.815 14.084-1.281 4.243 3.536 4.816 9.842 1.28 14.084-1.977 2.374-4.825 3.6-7.691 3.6z"/><path d="m315.033 409.622c-6.384 0-12.866-.824-19.319-2.554-24.64-6.602-44.6-25.864-52.093-50.271-1.676-5.458-2.729-11.038-3.129-16.583 0-.006-.001-.012-.001-.017-1.164-16.486 11.302-30.845 27.787-32.008 7.992-.565 15.713 2.018 21.758 7.265 6.046 5.248 9.686 12.537 10.249 20.522.084 1.159.279 2.252.58 3.23 1.526 4.972 5.293 8.597 10.337 9.948 3.856 1.031 7.857.522 11.263-1.439 3.403-1.96 5.845-5.159 6.876-9.009 1.04-3.881.527-7.897-1.442-11.309l-31.962-55.483h-42.748l-44.997 102.979c-3.192 7.323-9.052 12.972-16.496 15.896-7.445 2.926-15.583 2.775-22.914-.421-6.954-3.03-12.453-8.53-15.483-15.485l-44.994-102.969h-.542c-16.542 0-30-13.458-30-30s13.458-30 30-30l20.137.055c11.891.006 22.663 7.063 27.421 17.981l25.426 58.188 24.666-56.448c4.292-11.848 15.574-19.776 28.209-19.776h32.195c-2.27-11.24-1.95-22.973 1.033-34.107 5.153-19.23 17.532-35.333 34.856-45.341 17.327-10.01 37.458-12.686 56.684-7.532 39.819 10.669 63.537 51.732 52.872 91.538-5.164 19.275-17.529 35.388-34.817 45.37-.56.324-1.144.637-1.733.929-3.884 2.119-7.895 3.88-11.971 5.257l17.146 29.764c9.878 17.267 12.489 37.288 7.368 56.403-8.942 33.365-39.225 55.427-72.222 55.427zm-54.592-70.832c.293 4.04 1.067 8.123 2.299 12.139 5.489 17.878 20.106 31.987 38.149 36.821 29.151 7.808 59.229-9.563 67.045-38.729 3.747-13.984 1.831-28.641-5.395-41.271l-23.842-41.39c-1.667-2.892-1.779-6.425-.302-9.418 1.478-2.993 4.352-5.052 7.661-5.487 2.388-.314 4.794-.795 7.154-1.427 4.098-1.098 8.163-2.747 12.082-4.901.155-.086.312-.166.472-.243.225-.108.447-.227.667-.354 12.673-7.316 21.729-19.116 25.511-33.231 7.811-29.153-9.563-59.229-38.73-67.044-14.066-3.769-28.805-1.804-41.503 5.532-12.7 7.337-21.771 19.127-25.542 33.198-3.1 11.574-2.268 24.032 2.344 35.079 1.288 3.087.948 6.613-.906 9.396-1.854 2.784-4.978 4.456-8.322 4.456h-45.662c-4.262 0-8.061 2.703-9.454 6.728-.085.248-.181.492-.286.732l-33.971 77.744c-1.592 3.643-5.189 5.996-9.164 5.996s-7.572-2.354-9.164-5.996l-34.593-79.169c-1.584-3.634-5.164-5.979-9.123-5.98l-20.132-.055c-5.487 0-9.973 4.486-9.973 10s4.486 10 10 10h7.085c3.975 0 7.572 2.354 9.164 5.996l47.619 108.975c1.01 2.318 2.834 4.144 5.143 5.149 2.436 1.063 5.137 1.111 7.609.14s4.418-2.847 5.479-5.281l47.621-108.982c1.592-3.643 5.189-5.996 9.164-5.996h55.071c3.576 0 6.88 1.909 8.665 5.008l34.843 60.483c4.636 8.029 5.858 17.435 3.436 26.477-2.417 9.018-8.174 16.533-16.212 21.164-8.027 4.623-17.41 5.844-26.421 3.427-11.666-3.125-20.743-11.871-24.28-23.396-.742-2.415-1.216-4.998-1.41-7.676-.188-2.674-1.399-5.099-3.411-6.844-2.011-1.746-4.585-2.606-7.239-2.417-5.486.385-9.633 5.162-9.246 10.647zm78.614-106.874h-14.42c-3.576 0-6.88-1.909-8.665-5.008l-7.091-12.309c-4.637-8.037-5.857-17.44-3.437-26.479 2.417-9.018 8.178-16.534 16.223-21.165 8.028-4.623 17.408-5.839 26.411-3.427 18.528 4.965 29.56 24.089 24.591 42.632-4.127 15.406-17.635 25.756-33.612 25.756zm-8.64-20h8.641c6.797 0 12.542-4.393 14.293-10.931 2.15-8.024-2.44-15.991-10.449-18.138-3.85-1.033-7.849-.521-11.257 1.441-3.406 1.961-5.85 5.16-6.881 9.008-1.04 3.881-.527 7.898 1.443 11.311.001.003.003.006.004.008z"/></svg>