<svg id="Capa_1" enable-background="new 0 0 512.002 512.002" height="512" viewBox="0 0 512.002 512.002" width="512" xmlns="http://www.w3.org/2000/svg"><g clip-rule="evenodd" fill-rule="evenodd"><circle cx="256.001" cy="256.001" fill="#ffda8f" r="206.001"/><path d="m256.001 50c113.771 0 206.001 92.23 206.001 206.001s-92.23 206.001-206.001 206.001-206.001-92.23-206.001-206.001 92.23-206.001 206.001-206.001zm246.001 206.001c0-135.863-110.138-246.001-246.001-246.001s-246.001 110.138-246.001 246.001 110.138 246.001 246.001 246.001 246.001-110.138 246.001-246.001z" fill="#ffc144"/><path d="m340.023 254.355c22.058-38.205 15.688-86.126-15.375-117.189-37.916-37.916-99.379-37.916-137.294 0-31.049 31.05-37.44 79.036-15.375 117.189l21.667 37.45c4.637 8.032 3.34 18.619-3.379 25.339-13.138 13.138-35.723 3.802-35.723-14.798 0-11.046-8.954-20-20-20s-20 8.954-20 20c0 33.644 27.281 60.925 60.925 60.925 46.751 0 76.168-50.674 52.708-91.31l-21.667-37.607c-12.866-22.249-9.113-50.669 9.125-68.908 22.29-22.29 58.441-22.29 80.732 0 18.244 18.244 21.987 46.63 9.125 68.908l-21.667 37.528c-2.708 4.691-4.76 9.64-6.12 14.714-10.38 38.745 18.857 76.673 58.828 76.673 33.644 0 60.925-27.282 60.925-60.925 0-11.046-8.954-20-20-20s-20 8.954-20 20c0 11.56-9.364 20.925-20.925 20.925-16.314 0-26.046-17.758-18.177-31.387z" fill="#ffc144"/></g><path d="m437.021 74.981c-48.352-48.353-112.64-74.981-181.02-74.981-52.03 0-102.125 15.534-144.868 44.924-4.551 3.129-5.703 9.355-2.574 13.906 3.13 4.552 9.354 5.703 13.906 2.575 39.394-27.088 85.57-41.405 133.536-41.405 130.131 0 236.001 105.87 236.001 236.001s-105.87 236.001-236.001 236.001-236.001-105.87-236.001-236.001c0-47.971 14.315-94.146 41.4-133.53 3.129-4.551 1.977-10.777-2.574-13.906-4.55-3.13-10.776-1.977-13.906 2.573-29.387 42.734-44.92 92.827-44.92 144.863 0 68.38 26.629 132.668 74.981 181.02 48.352 48.353 112.64 74.981 181.02 74.981s132.668-26.628 181.02-74.981c48.353-48.352 74.981-112.64 74.981-181.02s-26.629-132.668-74.981-181.02z"/><path d="m424.614 374.783c4.662 2.964 10.841 1.585 13.804-3.075 21.971-34.568 33.584-74.579 33.584-115.707 0-57.696-22.468-111.938-63.265-152.736-40.798-40.797-95.04-63.265-152.736-63.265-57.695 0-111.938 22.468-152.735 63.265-40.798 40.798-63.266 95.04-63.266 152.736s22.468 111.938 63.266 152.736c40.797 40.797 95.04 63.265 152.735 63.265 41.13 0 81.139-11.612 115.701-33.58 4.661-2.962 6.038-9.143 3.075-13.804-2.961-4.66-9.141-6.038-13.804-3.075-31.351 19.926-67.649 30.459-104.973 30.459-108.074 0-196-87.926-196-196.001s87.926-196.001 196.001-196.001 196.001 87.926 196.001 196.001c0 37.322-10.534 73.623-30.463 104.979-2.963 4.661-1.586 10.841 3.075 13.803z"/><path d="m82.045 92.054c2.721 0 5.433-1.104 7.406-3.275 3.715-4.086 3.414-10.411-.673-14.126-4.086-3.715-10.41-3.414-14.126.673l-.005.005c-3.715 4.086-3.411 10.408.675 14.123 1.916 1.741 4.323 2.6 6.723 2.6z"/><path d="m401.665 411.667c2.415 0 4.838-.869 6.758-2.629 4.071-3.732 4.347-10.058.614-14.129-3.729-4.07-10.058-4.347-14.128-.614l-.006.005c-4.071 3.732-4.344 10.055-.611 14.126 1.972 2.15 4.667 3.241 7.373 3.241z"/><path d="m275.165 266.884c-3.132 5.425-5.527 11.187-7.119 17.126-5.75 21.465-1.292 43.884 12.232 61.509 13.535 17.637 34.039 27.753 56.255 27.753 39.108 0 70.925-31.817 70.925-70.925 0-16.542-13.458-30-30-30s-30 13.458-30 30c0 6.024-4.9 10.925-10.925 10.925-5.663 0-8.475-3.811-9.421-5.449-2.007-3.477-2.043-7.565-.096-10.938l21.667-37.528c24.201-41.918 17.225-95.071-16.964-129.26-41.752-41.751-109.686-41.751-151.438 0-34.215 34.216-41.188 87.372-16.959 129.268l21.662 37.442c2.435 4.217 1.682 9.797-1.79 13.268-4.763 4.763-10.308 2.989-11.896 2.333-1.585-.657-6.756-3.322-6.756-10.06 0-16.542-13.458-30-30-30s-30 13.458-30 30c0 39.108 31.816 70.925 70.925 70.925 25.607 0 48.549-13.256 61.368-35.458 12.807-22.182 12.807-48.668.005-70.843l-21.675-37.621c-10.634-18.388-7.533-41.758 7.539-56.831 18.359-18.359 48.232-18.359 66.59 0 15.063 15.063 18.161 38.435 7.536 56.837zm28.273-108.508c-13.079-13.078-30.258-19.617-47.438-19.617s-34.358 6.54-47.438 19.618c-21.466 21.467-25.87 54.769-10.719 80.971l21.672 37.615c9.191 15.921 9.191 34.931 0 50.851-9.204 15.942-25.671 25.459-44.048 25.459-28.08 0-50.925-22.845-50.925-50.925 0-5.514 4.486-10 10-10s10 4.486 10 10c0 12.722 7.32 23.657 19.103 28.538 11.784 4.881 24.696 2.327 33.69-6.668 9.917-9.916 11.96-25.299 4.964-37.417l-21.665-37.449c-19.702-34.067-14.032-77.291 13.789-105.112 33.953-33.952 89.199-33.952 123.152 0 27.8 27.8 33.469 71.026 13.786 105.119l-21.667 37.528c-5.563 9.634-5.526 21.199.096 30.938 5.585 9.674 15.582 15.45 26.741 15.45 17.052 0 30.925-13.873 30.925-30.925 0-5.514 4.486-10 10-10s10 4.486 10 10c0 28.081-22.845 50.925-50.925 50.925-15.948 0-30.669-7.264-40.388-19.928-9.709-12.652-12.909-28.748-8.781-44.156 1.14-4.252 2.862-8.392 5.121-12.304l21.667-37.528c15.145-26.231 10.74-59.531-10.712-80.983z"/></svg>