<svg id="Capa_1" enable-background="new 0 0 512.002 512.002" height="512" viewBox="0 0 512.002 512.002" width="512" xmlns="http://www.w3.org/2000/svg"><g clip-rule="evenodd" fill-rule="evenodd"><circle cx="256.001" cy="256.001" fill="#a0c8ff" r="206.001"/><path d="m256.001 50c113.771 0 206.001 92.23 206.001 206.001s-92.23 206.001-206.001 206.001-206.001-92.23-206.001-206.001 92.23-206.001 206.001-206.001zm246.001 206.001c0-135.863-110.138-246.001-246.001-246.001s-246.001 110.138-246.001 246.001 110.138 246.001 246.001 246.001 246.001-110.138 246.001-246.001z" fill="#60a4ff"/><path d="m386.624 268.499c11.046 0 20-8.954 20-20s-8.954-20-20-20h-41.9c.847-4.962 1.277-9.979 1.277-15 0-24.85-10.075-47.351-26.362-63.638s-38.788-26.362-63.638-26.362c-24.851 0-47.351 10.075-63.638 26.362-16.288 16.287-26.362 38.788-26.362 63.638 0 5.021.431 10.038 1.277 15h-41.9c-11.046 0-20 8.954-20 20s8.954 20 20 20h70.002c11.046 0 20-8.954 20-20 0-4.065-1.214-7.846-3.297-11.003-1.888-3.457-3.362-7.165-4.399-11.036-1.112-4.149-1.682-8.505-1.682-12.961 0-13.809 5.596-26.31 14.643-35.357s21.548-14.643 35.357-14.643 26.31 5.596 35.357 14.643 14.643 21.548 14.643 35.357c0 4.456-.57 8.812-1.682 12.961-1.138 4.249-2.802 8.299-4.962 12.039-5.523 9.535-2.27 21.743 7.266 27.266 3.154 1.827 6.6 2.692 10 2.689z" fill="#60a4ff"/><path d="m386.624 308.502h-261.246c-11.046 0-20 8.954-20 20s8.954 20 20 20h261.246c11.046 0 20-8.954 20-20s-8.954-20-20-20z" fill="#60a4ff"/></g><path d="m256.001 512.002c-68.38 0-132.668-26.629-181.02-74.981-48.352-48.352-74.981-112.64-74.981-181.02 0-52.036 15.533-102.129 44.92-144.862 3.13-4.552 9.356-5.702 13.906-2.574 4.551 3.13 5.703 9.355 2.573 13.906-27.083 39.384-41.399 85.558-41.399 133.53 0 130.131 105.87 236.001 236.001 236.001s236-105.87 236-236.001-105.869-236.001-236-236.001c-47.966 0-94.142 14.317-133.536 41.404-4.551 3.13-10.777 1.978-13.906-2.574-3.129-4.551-1.977-10.777 2.575-13.906 42.743-29.39 92.837-44.924 144.867-44.924 68.38 0 132.667 26.629 181.02 74.981s74.981 112.64 74.981 181.02-26.628 132.668-74.981 181.02c-48.352 48.352-112.639 74.981-181.02 74.981z"/><path d="m256.001 472.002c-57.696 0-111.939-22.468-152.736-63.265-40.797-40.798-63.265-95.04-63.265-152.736 0-57.695 22.468-111.938 63.265-152.735 40.798-40.798 95.04-63.266 152.736-63.266s111.938 22.468 152.735 63.266c40.797 40.797 63.265 95.04 63.265 152.735 0 41.127-11.613 81.138-33.583 115.707-2.962 4.66-9.145 6.039-13.803 3.075-4.661-2.962-6.039-9.143-3.076-13.804 19.929-31.356 30.463-67.657 30.463-104.979 0-108.075-87.925-196.001-196-196.001s-196.002 87.927-196.002 196.002 87.926 196.001 196.001 196.001c37.324 0 73.623-10.532 104.973-30.459 4.661-2.963 10.842-1.586 13.804 3.075s1.586 10.841-3.075 13.804c-34.563 21.969-74.572 33.58-115.702 33.58z"/><path d="m82.042 92.054c-2.257 0-4.525-.76-6.395-2.316-4.243-3.536-4.818-9.839-1.283-14.081l.005-.006c3.536-4.243 9.841-4.816 14.084-1.281 4.243 3.536 4.816 9.842 1.28 14.084-1.977 2.373-4.824 3.6-7.691 3.6z"/><path d="m401.665 411.667c-2.72 0-5.429-1.102-7.401-3.271-3.715-4.087-3.417-10.409.67-14.124l.005-.005c4.085-3.714 10.411-3.414 14.126.673s3.414 10.411-.673 14.126c-1.916 1.742-4.325 2.601-6.727 2.601z"/><path d="m386.624 278.499-70.007-.045c-5.278-.004-10.438-1.391-15.005-4.035-6.924-4.011-11.872-10.477-13.932-18.208-2.06-7.73-.986-15.801 3.024-22.724 1.706-2.955 3.039-6.194 3.955-9.615.891-3.321 1.342-6.812 1.342-10.373 0-10.687-4.16-20.731-11.714-28.285-7.554-7.555-17.6-11.715-28.286-11.715s-20.731 4.16-28.286 11.715c-7.554 7.554-11.714 17.599-11.714 28.285 0 3.562.451 7.052 1.341 10.372.804 2.999 1.93 5.864 3.35 8.522 3.068 4.815 4.688 10.373 4.688 16.105 0 16.542-13.458 30-30 30h-70.001c-16.542 0-30-13.458-30-30s13.458-30 30-30h30.751c-.085-1.67-.128-3.338-.128-5 0-26.709 10.402-51.821 29.291-70.709 18.888-18.889 44-29.291 70.709-29.291 26.71 0 51.822 10.402 70.709 29.291 18.889 18.889 29.291 44 29.291 70.709 0 1.662-.043 3.33-.128 5h30.75c16.542 0 30 13.458 30 30s-13.458 30.001-30 30.001zm-70.009-20.045 70.016.045c5.508 0 9.994-4.486 9.994-10s-4.486-10-10-10h-41.899c-2.946 0-5.743-1.299-7.643-3.551s-2.71-5.227-2.215-8.131c.753-4.413 1.135-8.895 1.135-13.318 0-21.366-8.322-41.455-23.434-56.566-15.11-15.111-35.199-23.434-56.567-23.434-21.367 0-41.456 8.322-56.567 23.434-15.111 15.11-23.433 35.199-23.433 56.566 0 4.424.382 8.905 1.135 13.318.496 2.904-.314 5.879-2.215 8.131-1.9 2.252-4.696 3.551-7.643 3.551h-41.9c-5.514 0-10 4.486-10 10s4.486 10 10 10h70.001c5.514 0 10-4.486 10-10 0-1.966-.568-3.865-1.643-5.494-.154-.232-.298-.472-.432-.717-2.259-4.138-4.036-8.593-5.281-13.24-1.342-5.008-2.023-10.239-2.023-15.549 0-16.029 6.241-31.097 17.572-42.428 11.332-11.332 26.399-17.572 42.428-17.572s31.096 6.24 42.428 17.572c11.331 11.332 17.572 26.399 17.572 42.428 0 5.31-.681 10.541-2.023 15.55-1.368 5.107-3.374 9.969-5.96 14.45-1.34 2.313-1.696 4.994-1.012 7.563.685 2.569 2.329 4.718 4.628 6.05 1.539.891 3.211 1.343 4.971 1.343.004-.001.007-.001.01-.001z"/><path d="m386.624 358.502h-261.246c-16.542 0-30-13.458-30-30s13.458-30 30-30h261.246c16.542 0 30 13.458 30 30s-13.458 30-30 30zm-261.246-40c-5.514 0-10 4.486-10 10s4.486 10 10 10h261.246c5.514 0 10-4.486 10-10s-4.486-10-10-10z"/></svg>