<svg id="Capa_1" enable-background="new 0 0 512.001 512.001" height="512" viewBox="0 0 512.001 512.001" width="512" xmlns="http://www.w3.org/2000/svg"><g clip-rule="evenodd" fill-rule="evenodd"><circle cx="256.001" cy="256.001" fill="#ddb9a3" r="206.001"/><path d="m256.001 50c113.771 0 206.001 92.23 206.001 206.001s-92.23 206.001-206.001 206.001-206.001-92.23-206.001-206.001 92.23-206.001 206.001-206.001zm246.001 206.001c0-135.863-110.139-246.001-246.001-246.001s-246.001 110.138-246.001 246.001 110.138 246.001 246.001 246.001 246.001-110.139 246.001-246.001z" fill="#c68a65"/><path d="m279.758 236h-47.515c-2.54-16.924-8.262-33.099-16.712-47.735-11.656-20.189-28.597-37.399-49.609-49.53-9.535-5.48-21.708-2.192-27.187 7.344-5.48 9.535-2.192 21.708 7.344 27.187 14.714 8.495 26.642 20.659 34.921 34.999 4.941 8.558 8.548 17.911 10.637 27.735h-17.903c-11.046 0-20 8.954-20 20s8.954 20 20 20h17.903c-2.089 9.824-5.696 19.177-10.637 27.735-8.279 14.341-20.207 26.504-34.921 34.999-9.536 5.48-12.823 17.652-7.344 27.187 5.48 9.536 17.652 12.823 27.187 7.344 21.012-12.131 37.953-29.341 49.609-49.53 8.45-14.636 14.172-30.811 16.712-47.735h47.515c2.54 16.924 8.262 33.099 16.712 47.735 11.656 20.189 28.597 37.399 49.609 49.53 9.535 5.48 21.708 2.192 27.187-7.344 5.48-9.535 2.192-21.708-7.344-27.187-14.714-8.495-26.642-20.659-34.921-34.999-4.941-8.558-8.548-17.91-10.637-27.735h17.903c11.046 0 20-8.954 20-20s-8.954-20-20-20h-17.903c2.089-9.824 5.696-19.177 10.637-27.735 8.279-14.34 20.207-26.504 34.921-34.999 9.535-5.48 12.823-17.652 7.344-27.187-5.48-9.536-17.652-12.823-27.187-7.344-21.012 12.131-37.953 29.341-49.609 49.53-8.45 14.636-14.172 30.811-16.712 47.735z" fill="#c68a65"/></g><path d="m437.021 74.98c-48.353-48.352-112.64-74.98-181.02-74.98-52.031 0-102.126 15.534-144.868 44.924-4.551 3.129-5.703 9.355-2.574 13.906 3.13 4.551 9.355 5.703 13.906 2.574 39.393-27.087 85.569-41.404 133.536-41.404 130.131 0 236 105.87 236 236 0 130.131-105.87 236.001-236 236.001-130.131 0-236.001-105.869-236.001-236.001 0-47.971 14.316-94.146 41.4-133.53 3.129-4.551 1.978-10.777-2.573-13.906-4.55-3.129-10.776-1.977-13.906 2.573-29.388 42.735-44.921 92.827-44.921 144.863 0 68.38 26.628 132.668 74.981 181.02 48.352 48.352 112.64 74.981 181.02 74.981s132.667-26.629 181.02-74.981 74.981-112.64 74.981-181.02-26.629-132.667-74.981-181.02z"/><path d="m424.615 374.783c4.66 2.963 10.841 1.586 13.803-3.076 21.971-34.568 33.583-74.579 33.583-115.707 0-57.696-22.468-111.938-63.265-152.736-40.797-40.797-95.039-63.264-152.735-63.264s-111.938 22.468-152.736 63.265-63.265 95.04-63.265 152.735 22.468 111.938 63.265 152.736 95.04 63.265 152.736 63.265c41.129 0 81.138-11.612 115.701-33.58 4.661-2.962 6.038-9.143 3.075-13.804-2.962-4.661-9.143-6.038-13.804-3.075-31.351 19.926-67.65 30.459-104.973 30.459-108.074 0-196-87.925-196-196.001s87.926-196 196.001-196 196 87.926 196 196.001c0 37.322-10.534 73.623-30.462 104.979-2.963 4.66-1.585 10.84 3.076 13.803z"/><path d="m82.045 92.053c2.721 0 5.432-1.104 7.406-3.275 3.715-4.086 3.414-10.411-.673-14.126-4.086-3.714-10.411-3.414-14.126.673l-.005.005c-3.715 4.086-3.411 10.408.675 14.123 1.916 1.742 4.323 2.6 6.723 2.6z"/><path d="m394.595 394.594-.005.005c-3.905 3.905-3.903 10.234.002 14.139 1.952 1.952 4.511 2.928 7.07 2.928 2.561 0 5.122-.978 7.075-2.931 3.905-3.905 3.905-10.237 0-14.142-3.906-3.904-10.237-3.904-14.142.001z"/><path d="m370.905 181.937c6.928-3.981 11.891-10.421 13.974-18.135s1.039-15.777-2.942-22.705-10.421-11.891-18.135-13.975c-7.714-2.083-15.777-1.039-22.723 2.953-22.137 12.781-40.558 31.173-53.269 53.19-7.736 13.4-13.238 27.741-16.405 42.735h-30.809c-3.166-14.994-8.668-29.335-16.405-42.735-12.711-22.017-31.131-40.41-53.286-53.2-6.927-3.981-14.991-5.026-22.705-2.943-7.714 2.084-14.154 7.047-18.135 13.974-3.981 6.928-5.027 14.991-2.943 22.705s7.047 14.154 13.957 18.125c12.921 7.46 23.731 18.297 31.261 31.339 2.355 4.079 4.36 8.335 6.001 12.735h-4.607c-16.542 0-30 13.458-30 30s13.458 30 30 30h4.607c-1.642 4.399-3.646 8.656-6.001 12.735-7.53 13.042-18.34 23.879-31.244 31.329-6.928 3.981-11.891 10.421-13.975 18.135-2.083 7.714-1.038 15.777 2.943 22.705s10.422 11.891 18.135 13.974c7.713 2.084 15.777 1.039 22.705-2.943.006-.003.011-.006.017-.01 22.138-12.781 40.559-31.174 53.269-53.19 7.737-13.399 13.239-27.741 16.405-42.735h30.809c3.167 14.994 8.668 29.335 16.405 42.735 12.711 22.017 31.132 40.41 53.286 53.201 4.597 2.642 9.694 3.991 14.857 3.991 2.618 0 5.253-.347 7.849-1.048 7.713-2.083 14.154-7.046 18.135-13.974 8.218-14.302 3.27-32.623-11.014-40.83-12.921-7.46-23.731-18.297-31.261-31.339-2.354-4.079-4.36-8.335-6.001-12.735h4.607c16.542 0 30-13.458 30-30s-13.458-30-30-30h-4.607c1.642-4.4 3.646-8.656 6.001-12.735 7.53-13.042 18.34-23.879 31.244-31.329zm-48.564 21.329c-5.504 9.533-9.46 19.847-11.758 30.655-.627 2.951.111 6.028 2.009 8.373 1.899 2.345 4.755 3.707 7.772 3.707h17.903c5.514 0 10 4.486 10 10s-4.486 10-10 10h-17.903c-3.017 0-5.873 1.362-7.771 3.707-1.899 2.345-2.637 5.421-2.01 8.373 2.298 10.808 6.254 21.122 11.758 30.655 9.283 16.078 22.624 29.447 38.599 38.67 4.739 2.724 6.379 8.795 3.656 13.535-1.319 2.295-3.454 3.94-6.01 4.631-2.557.689-5.229.345-7.507-.965-19.101-11.028-34.99-26.89-45.949-45.87-7.932-13.738-13.141-28.616-15.483-44.219-.734-4.895-4.939-8.516-9.889-8.516h-47.515c-4.95 0-9.155 3.621-9.889 8.516-2.341 15.603-7.551 30.48-15.483 44.219-10.958 18.979-26.844 34.839-45.944 45.867-2.293 1.314-4.959 1.657-7.511.968-2.556-.691-4.69-2.335-6.01-4.631-1.319-2.295-1.666-4.968-.976-7.524.691-2.557 2.335-4.691 4.649-6.021 15.957-9.212 29.298-22.581 38.582-38.66 5.504-9.534 9.46-19.848 11.757-30.655.627-2.951-.111-6.028-2.01-8.373-1.898-2.345-4.754-3.707-7.771-3.707h-17.903c-5.514 0-10-4.486-10-10s4.486-10 10-10h17.903c3.017 0 5.873-1.362 7.772-3.707 1.898-2.345 2.637-5.421 2.009-8.373-2.298-10.808-6.253-21.122-11.758-30.655-9.283-16.079-22.625-29.447-38.599-38.67-2.296-1.319-3.94-3.454-4.631-6.01-.69-2.556-.344-5.228.976-7.524s3.454-3.94 6.01-4.631c2.558-.689 5.228-.344 7.507.965 19.102 11.028 34.99 26.89 45.949 45.87 7.932 13.739 13.142 28.616 15.483 44.219.734 4.895 4.939 8.516 9.889 8.516h47.515c4.95 0 9.155-3.621 9.889-8.516 2.342-15.603 7.551-30.48 15.483-44.219 10.958-18.98 26.848-34.842 45.932-45.86 2.295-1.319 4.968-1.665 7.524-.976 2.557.691 4.691 2.335 6.01 4.631s1.666 4.968.975 7.524c-.69 2.556-2.335 4.69-4.648 6.02-15.959 9.214-29.3 22.583-38.583 38.661z"/></svg>