<svg id="Capa_1" enable-background="new 0 0 512.001 512.001" height="512" viewBox="0 0 512.001 512.001" width="512" xmlns="http://www.w3.org/2000/svg"><g clip-rule="evenodd" fill-rule="evenodd"><circle cx="256.001" cy="256.001" fill="#ff9c9b" r="206.001"/><path d="m256.001 50c113.771 0 206.001 92.23 206.001 206.001s-92.23 206.001-206.001 206.001c-113.771-.001-206.001-92.23-206.001-206.001s92.23-206.001 206.001-206.001zm246 206.001c0-135.863-110.138-246.001-246-246.001s-246.001 110.138-246.001 246.001 110.138 246.001 246.001 246.001 246-110.139 246-246.001z" fill="#ff5a58"/><path d="m376.001 276.001v-120c0-11.046-8.954-20-20-20h-120.001c-11.046 0-20 8.954-20 20s8.954 20 20 20h71.719l-81.719 81.719-25.859-25.859c-7.809-7.809-20.472-7.809-28.281 0-7.81 7.809-7.81 20.472 0 28.281l25.859 25.859-55.859 55.859c-7.809 7.81-7.809 20.472 0 28.281s20.472 7.809 28.281 0l55.859-55.858 25.859 25.859c7.81 7.81 20.472 7.81 28.281 0 7.809-7.809 7.809-20.472 0-28.281l-25.859-25.859 81.719-81.72v71.719c0 11.046 8.954 20 20 20s20.001-8.954 20.001-20z" fill="#ff5a58"/></g><path d="m256 512.001c-68.38 0-132.667-26.629-181.02-74.98-48.352-48.352-74.98-112.64-74.98-181.02 0-52.036 15.533-102.129 44.92-144.862 3.129-4.552 9.355-5.701 13.906-2.574 4.551 3.13 5.703 9.355 2.573 13.906-27.083 39.384-41.399 85.558-41.399 133.53 0 130.131 105.87 236 236 236 130.131 0 236-105.869 236-236s-105.868-236.001-236-236.001c-47.967 0-94.143 14.317-133.536 41.404-4.55 3.127-10.777 1.978-13.906-2.574-3.129-4.551-1.977-10.777 2.574-13.906 42.743-29.39 92.838-44.924 144.868-44.924 68.38 0 132.667 26.629 181.02 74.98 48.352 48.353 74.98 112.64 74.98 181.021 0 68.38-26.629 132.668-74.98 181.02-48.352 48.351-112.639 74.98-181.02 74.98z"/><path d="m256 472.002c-57.696 0-111.938-22.468-152.735-63.266-40.797-40.797-63.265-95.04-63.265-152.735 0-57.696 22.468-111.938 63.265-152.736 40.797-40.797 95.04-63.265 152.735-63.265s111.938 22.468 152.736 63.265c40.797 40.798 63.265 95.04 63.265 152.736 0 41.127-11.612 81.138-33.583 115.707-2.961 4.661-9.139 6.041-13.804 3.075-4.661-2.962-6.038-9.143-3.075-13.804 19.928-31.356 30.462-67.657 30.462-104.979 0-108.074-87.926-196-196.001-196s-196 87.926-196 196.001 87.925 196.001 196 196.001c37.322 0 73.622-10.532 104.973-30.459 4.66-2.966 10.841-1.586 13.804 3.075s1.586 10.842-3.075 13.804c-34.564 21.969-74.573 33.58-115.702 33.58z"/><path d="m82.042 92.054c-2.257 0-4.525-.76-6.395-2.316-4.243-3.536-4.818-9.839-1.283-14.081l.005-.006c3.536-4.242 9.842-4.815 14.084-1.281 4.243 3.536 4.816 9.842 1.28 14.084-1.977 2.373-4.824 3.6-7.691 3.6z"/><path d="m401.655 411.667c-2.257 0-4.525-.76-6.395-2.316-4.242-3.536-4.818-9.839-1.283-14.081l.005-.006c3.538-4.243 9.845-4.814 14.084-1.281 4.243 3.536 4.816 9.842 1.281 14.084-1.978 2.373-4.825 3.6-7.692 3.6z"/><path d="m156 386c-8.013 0-15.546-3.12-21.212-8.786s-8.786-13.199-8.786-21.212c0-8.014 3.121-15.547 8.786-21.212l48.787-48.787-18.789-18.788c-5.666-5.666-8.786-13.199-8.786-21.212 0-8.014 3.12-15.547 8.786-21.212 5.666-5.666 13.199-8.786 21.211-8.786 8.013 0 15.546 3.12 21.212 8.786l18.788 18.788 57.578-57.577h-47.577c-16.542 0-30-13.458-30-30s13.458-30 30-30h120c16.542 0 30 13.458 30 30v120c0 16.542-13.458 30-30 30s-30-13.458-30-30v-47.576l-57.577 57.577 18.789 18.788c5.665 5.665 8.786 13.198 8.786 21.212 0 8.013-3.12 15.546-8.786 21.212-11.696 11.695-30.728 11.695-42.424 0l-18.789-18.788-48.787 48.787c-5.664 5.666-13.197 8.786-21.21 8.786zm29.999-149.995c-2.67 0-5.181 1.04-7.069 2.929-1.888 1.888-2.928 4.398-2.928 7.069s1.04 5.182 2.928 7.069l25.859 25.859c3.905 3.905 3.905 10.237 0 14.143l-55.858 55.858c-1.888 1.888-2.928 4.398-2.928 7.069s1.04 5.182 2.928 7.069c1.887 1.89 4.398 2.93 7.069 2.93s5.181-1.04 7.069-2.929l55.858-55.858c3.905-3.904 10.237-3.904 14.143 0l25.859 25.859c3.9 3.9 10.242 3.897 14.141 0 1.888-1.888 2.928-4.398 2.928-7.069s-1.04-5.182-2.928-7.069l-25.86-25.859c-1.875-1.876-2.929-4.419-2.929-7.071s1.054-5.195 2.929-7.071l81.719-81.72c2.86-2.859 7.161-3.714 10.898-2.168 3.736 1.548 6.173 5.194 6.173 9.239v71.719c0 5.514 4.486 10 10 10s10-4.486 10-10v-120c0-5.514-4.486-10-10-10h-120c-5.514 0-10 4.486-10 10s4.486 10 10 10h71.719c4.045 0 7.691 2.437 9.239 6.173 1.548 3.737.691 8.038-2.168 10.898l-81.719 81.72c-1.875 1.875-4.419 2.929-7.071 2.929s-5.196-1.054-7.071-2.929l-25.859-25.859c-1.89-1.89-4.401-2.93-7.071-2.93z"/></svg>