<svg id="Capa_1" enable-background="new 0 0 512.002 512.002" height="512" viewBox="0 0 512.002 512.002" width="512" xmlns="http://www.w3.org/2000/svg"><g clip-rule="evenodd" fill-rule="evenodd"><circle cx="256.001" cy="256.001" fill="#ff9c9b" r="206.001"/><path d="m256.001 50c113.771 0 206.001 92.23 206.001 206.001s-92.23 206.001-206.001 206.001-206.001-92.23-206.001-206.001 92.23-206.001 206.001-206.001zm246.001 206.001c0-135.863-110.138-246.001-246.001-246.001s-246.001 110.138-246.001 246.001 110.138 246.001 246.001 246.001 246.001-110.138 246.001-246.001z" fill="#ff5a58"/><path d="m355.118 316.467v-120c0-16.521-6.744-31.525-17.609-42.39s-25.87-17.609-42.39-17.609c-15.341 0-29.374 5.816-40 15.347-10.626-9.531-24.659-15.347-40-15.347-15.358 0-29.405 5.829-40.036 15.379-6.915-6.203-15.264-10.833-24.469-13.312-10.657-2.848-21.605 3.484-24.453 14.141s3.484 21.605 14.141 24.453c4.308 1.16 8.051 3.729 10.696 7.175 2.582 3.363 4.121 7.583 4.121 12.164v120c0 11.046 8.954 20 20 20s20-8.954 20-20v-120c0-5.479 2.256-10.475 5.89-14.109s8.63-5.89 14.11-5.89c5.479 0 10.475 2.256 14.109 5.89s5.89 8.63 5.89 14.109v120c0 11.046 8.954 20 20 20s20-8.954 20-20v-120c0-5.479 2.256-10.475 5.89-14.109s8.63-5.89 14.11-5.89c5.479 0 10.475 2.256 14.109 5.89s5.89 8.63 5.89 14.109v120c0 14.122 4.981 27.176 13.282 37.495 8.396 10.438 20.263 18.03 33.847 21.027 10.744 2.373 21.377-4.413 23.75-15.156 2.373-10.744-4.413-21.377-15.156-23.75-4.508-.994-8.488-3.566-11.347-7.12-2.733-3.402-4.375-7.749-4.375-12.497z" fill="#ff5a58"/></g><path d="m256.001 512.002c-68.38 0-132.668-26.628-181.02-74.981-48.352-48.352-74.981-112.639-74.981-181.02 0-52.036 15.533-102.129 44.92-144.863 3.13-4.551 9.356-5.703 13.906-2.573 4.551 3.129 5.703 9.355 2.574 13.906-27.085 39.385-41.4 85.559-41.4 133.53 0 130.131 105.87 236 236.001 236s236.001-105.87 236.001-236c0-130.131-105.87-236.001-236.001-236.001-47.966 0-94.142 14.317-133.536 41.404-4.552 3.128-10.776 1.978-13.906-2.575-3.129-4.551-1.977-10.776 2.574-13.906 42.743-29.389 92.838-44.923 144.868-44.923 68.38 0 132.668 26.629 181.02 74.981 48.353 48.352 74.981 112.64 74.981 181.02s-26.629 132.667-74.981 181.02c-48.352 48.352-112.64 74.981-181.02 74.981z"/><path d="m256.001 472.002c-57.695 0-111.938-22.468-152.735-63.265-40.798-40.797-63.266-95.04-63.266-152.736s22.468-111.938 63.266-152.736c40.797-40.797 95.04-63.265 152.735-63.265 57.696 0 111.938 22.468 152.736 63.265 40.797 40.797 63.265 95.04 63.265 152.736 0 41.128-11.613 81.139-33.584 115.707-2.963 4.661-9.142 6.038-13.804 3.075-4.661-2.962-6.038-9.143-3.075-13.804 19.929-31.356 30.463-67.657 30.463-104.979 0-108.074-87.926-196-196.001-196s-196.001 87.926-196.001 196.001 87.926 196 196.001 196c37.324 0 73.623-10.532 104.973-30.458 4.663-2.963 10.843-1.585 13.804 3.075 2.963 4.661 1.586 10.841-3.075 13.804-34.563 21.968-74.572 33.58-115.702 33.58z"/><path d="m82.045 92.053c-2.4 0-4.807-.858-6.723-2.6-4.086-3.715-4.39-10.037-.675-14.123l.005-.005c3.716-4.087 10.04-4.388 14.126-.673 4.087 3.715 4.388 10.04.673 14.126-1.973 2.172-4.685 3.275-7.406 3.275z"/><path d="m401.665 411.667c-2.706 0-5.401-1.09-7.373-3.241-3.732-4.071-3.46-10.394.611-14.126l.006-.005c4.07-3.732 10.398-3.456 14.128.614 3.732 4.071 3.457 10.397-.614 14.129-1.92 1.76-4.343 2.629-6.758 2.629z"/><path d="m366.63 385.505c-2.166 0-4.347-.236-6.513-.715-15.486-3.416-29.51-12.125-39.482-24.523-9.989-12.418-15.49-27.96-15.49-43.763v-120c0-2.629-1.052-5.128-2.961-7.038-1.91-1.91-4.409-2.961-7.039-2.961-2.629 0-5.129 1.052-7.039 2.961-1.909 1.91-2.961 4.41-2.961 7.038v120c0 16.542-13.458 30-30 30s-30-13.458-30-30v-120c0-2.629-1.052-5.128-2.961-7.038-1.91-1.91-4.409-2.961-7.038-2.961-2.63 0-5.13 1.052-7.04 2.961-1.909 1.91-2.961 4.41-2.961 7.038v120c0 16.542-13.458 30-30 30s-30-13.458-30-30v-120c0-2.225-.71-4.326-2.053-6.075-1.351-1.76-3.255-3.041-5.363-3.608-15.949-4.262-25.469-20.724-21.202-36.691s20.731-25.485 36.695-21.22c7.794 2.099 15.229 5.587 21.879 10.23 11.706-8.196 25.646-12.636 40.045-12.636 14.379 0 28.304 4.429 39.999 12.605 11.696-8.176 25.622-12.605 40-12.605 18.651 0 36.217 7.294 49.462 20.539 13.244 13.244 20.538 30.81 20.538 49.461v120c0 2.919 1.179 4.998 2.168 6.228 1.49 1.854 3.518 3.14 5.708 3.623 7.808 1.724 14.474 6.384 18.773 13.121s5.718 14.746 3.994 22.55c-1.723 7.804-6.383 14.47-13.12 18.77-4.868 3.106-10.399 4.708-16.038 4.709zm-71.485-219.001c7.972 0 15.494 3.132 21.181 8.82 5.687 5.686 8.819 13.208 8.819 21.18v120c0 11.422 3.829 22.22 11.074 31.228 7.13 8.864 17.148 15.089 28.209 17.529 2.593.573 5.247.102 7.48-1.324 2.234-1.426 3.779-3.636 4.351-6.223.571-2.589.102-5.245-1.324-7.479s-3.636-3.779-6.224-4.351c-6.618-1.459-12.65-5.23-16.983-10.618-4.245-5.278-6.583-11.941-6.583-18.762v-120c0-13.31-5.214-25.853-14.681-35.32s-22.01-14.68-35.319-14.68c-12.292 0-24.126 4.542-33.323 12.791-3.799 3.407-9.555 3.407-13.354 0-9.196-8.249-21.03-12.791-33.322-12.791-12.307 0-24.152 4.552-33.354 12.818-3.799 3.413-9.559 3.415-13.359.004-5.846-5.243-12.896-9.081-20.393-11.1-5.294-1.417-10.772 1.752-12.191 7.066-1.42 5.313 1.748 10.791 7.061 12.21 6.346 1.708 12.038 5.523 16.047 10.748 4.048 5.273 6.188 11.585 6.188 18.253v120c0 5.514 4.486 10 10 10s10-4.486 10-10v-120c0-7.97 3.132-15.492 8.819-21.18 5.688-5.688 13.211-8.82 21.182-8.82 7.972 0 15.493 3.132 21.18 8.82 5.687 5.686 8.819 13.208 8.819 21.18v120c0 5.514 4.486 10 10 10s10-4.486 10-10v-120c0-7.97 3.132-15.492 8.819-21.18 5.688-5.687 13.21-8.819 21.181-8.819z"/></svg>