<svg id="Capa_1" enable-background="new 0 0 512.002 512.002" height="512" viewBox="0 0 512.002 512.002" width="512" xmlns="http://www.w3.org/2000/svg"><g clip-rule="evenodd" fill-rule="evenodd"><circle cx="256.001" cy="256.001" fill="#ddb9a3" r="206.001"/><path d="m256.001 50c113.771 0 206.001 92.23 206.001 206.001s-92.23 206.001-206.001 206.001-206.001-92.23-206.001-206.001 92.23-206.001 206.001-206.001zm246.001 206.001c0-135.863-110.138-246.001-246.001-246.001s-246.001 110.138-246.001 246.001 110.138 246.001 246.001 246.001 246.001-110.139 246.001-246.001z" fill="#c68a65"/><path d="m317.547 214.82c3.218-2.516 6.279-5.225 9.163-8.109 18.097-18.097 29.291-43.097 29.291-70.709 0-11.046-8.954-20-20-20s-20 8.954-20 20c0 16.57-6.715 31.571-17.572 42.428s-25.857 17.572-42.428 17.572-31.571-6.715-42.428-17.572-17.572-25.857-17.572-42.428c0-11.046-8.954-20-20-20s-20 8.954-20 20c0 27.612 11.194 52.612 29.291 70.709 2.885 2.885 5.945 5.593 9.163 8.109-5.835 3.946-11.271 8.437-16.234 13.401-19.907 19.907-32.22 47.407-32.22 77.78 0 30.374 12.313 57.874 32.22 77.78 19.907 19.907 47.407 32.22 77.78 32.22s57.873-12.313 77.78-32.22 32.22-47.407 32.22-77.78-12.313-57.873-32.22-77.78c-4.963-4.964-10.399-9.455-16.234-13.401zm-111.045 41.682c27.334-27.334 71.664-27.334 98.998 0 12.666 12.666 20.501 30.167 20.501 49.499s-7.834 36.833-20.501 49.499c-12.666 12.666-30.167 20.501-49.499 20.501s-36.833-7.834-49.499-20.501c-12.666-12.666-20.501-30.167-20.501-49.499s7.835-36.833 20.501-49.499z" fill="#c68a65"/></g><path d="m256.001 512.002c-68.38 0-132.668-26.629-181.02-74.981-48.352-48.352-74.981-112.64-74.981-181.02 0-52.036 15.533-102.129 44.92-144.862 3.13-4.552 9.356-5.701 13.906-2.574 4.551 3.13 5.703 9.355 2.574 13.906-27.085 39.384-41.4 85.558-41.4 133.53 0 130.131 105.87 236.001 236.001 236.001s236.001-105.87 236.001-236.001-105.87-236.001-236.001-236.001c-47.967 0-94.143 14.317-133.536 41.404-4.549 3.127-10.776 1.978-13.906-2.574-3.129-4.551-1.977-10.777 2.574-13.906 42.743-29.39 92.837-44.924 144.868-44.924 68.38 0 132.668 26.629 181.02 74.981 48.353 48.352 74.981 112.64 74.981 181.02s-26.629 132.668-74.981 181.02-112.64 74.981-181.02 74.981z"/><path d="m256.001 472.002c-57.695 0-111.938-22.468-152.735-63.265-40.798-40.798-63.266-95.04-63.266-152.736s22.468-111.938 63.266-152.736c40.797-40.797 95.04-63.265 152.735-63.265 57.696 0 111.938 22.468 152.736 63.265 40.797 40.798 63.265 95.04 63.265 152.736 0 41.128-11.613 81.139-33.584 115.707-2.963 4.659-9.142 6.038-13.804 3.075-4.661-2.962-6.038-9.143-3.075-13.804 19.929-31.355 30.463-67.657 30.463-104.979 0-108.074-87.926-196-196.001-196s-196.001 87.926-196.001 196.001 87.926 196.001 196.001 196.001c37.324 0 73.623-10.532 104.973-30.459 4.663-2.962 10.843-1.585 13.804 3.075 2.963 4.661 1.586 10.841-3.075 13.804-34.562 21.969-74.571 33.58-115.702 33.58z"/><path d="m82.042 92.054c-2.257 0-4.525-.76-6.395-2.316-4.242-3.536-4.818-9.839-1.283-14.081l.005-.006c3.539-4.243 9.845-4.813 14.084-1.281 4.243 3.536 4.816 9.842 1.281 14.084-1.978 2.373-4.825 3.6-7.692 3.6z"/><path d="m401.662 411.666c-2.56 0-5.118-.976-7.07-2.927-3.905-3.905-3.908-10.234-.003-14.14l.006-.006c3.906-3.904 10.236-3.904 14.143 0 3.905 3.905 3.905 10.237 0 14.143-1.954 1.953-4.515 2.93-7.076 2.93z"/><path d="m256.001 426.001c-32.052 0-62.186-12.482-84.852-35.148-22.666-22.665-35.148-52.799-35.148-84.852 0-32.052 12.482-62.186 35.148-84.852 2.407-2.406 4.921-4.716 7.528-6.914-.152-.15-.305-.301-.456-.452-20.778-20.778-32.221-48.401-32.221-77.781 0-16.543 13.458-30.001 30-30.001s30 13.458 30 30.001c0 13.356 5.2 25.913 14.644 35.356 9.442 9.442 21.999 14.643 35.356 14.643s25.914-5.2 35.356-14.643c9.443-9.443 14.644-22 14.644-35.356 0-16.543 13.458-30.001 30-30.001s30 13.458 30 30.001c0 29.38-11.442 57.003-32.22 77.78-.151.151-.304.303-.457.453 2.607 2.199 5.121 4.508 7.528 6.914 22.666 22.666 35.148 52.8 35.148 84.852 0 32.053-12.482 62.187-35.148 84.852-22.664 22.666-52.798 35.148-84.85 35.148zm-80-300c-5.514 0-10 4.486-10 10.001 0 24.038 9.362 46.638 26.362 63.638 2.59 2.59 5.366 5.047 8.251 7.302 2.52 1.97 3.945 5.025 3.835 8.223-.11 3.196-1.742 6.146-4.392 7.938-5.282 3.572-10.25 7.674-14.766 12.189-18.889 18.889-29.291 44-29.291 70.709 0 26.71 10.402 51.821 29.291 70.709 18.889 18.889 44 29.291 70.709 29.291s51.82-10.402 70.709-29.291c18.889-18.888 29.291-43.999 29.291-70.709 0-26.709-10.402-51.82-29.291-70.709-4.516-4.516-9.483-8.617-14.766-12.189-2.649-1.792-4.281-4.742-4.392-7.938-.11-3.197 1.315-6.253 3.835-8.223 2.889-2.259 5.664-4.715 8.251-7.302 17-17 26.362-39.6 26.362-63.638 0-5.515-4.486-10.001-10-10.001s-10 4.486-10 10.001c0 18.698-7.28 36.277-20.501 49.498-13.22 13.221-30.799 20.501-49.499 20.501s-36.279-7.28-49.499-20.5c-13.221-13.222-20.501-30.801-20.501-49.499.002-5.515-4.484-10.001-9.998-10.001zm80 260c-21.372 0-41.462-8.321-56.57-23.43s-23.43-35.199-23.43-56.57 8.321-41.461 23.43-56.57c31.193-31.193 81.947-31.193 113.141 0 15.108 15.109 23.43 35.199 23.43 56.57 0 21.372-8.321 41.462-23.43 56.57-15.11 15.109-35.2 23.43-56.571 23.43zm0-139.999c-16.029 0-31.097 6.24-42.428 17.571-11.332 11.331-17.572 26.399-17.572 42.428s6.24 31.097 17.572 42.428c11.33 11.332 26.398 17.572 42.428 17.572 16.028 0 31.097-6.24 42.428-17.572 11.332-11.33 17.572-26.398 17.572-42.428 0-16.028-6.24-31.097-17.572-42.428-11.331-11.331-26.399-17.571-42.428-17.571z"/></svg>