<svg id="Capa_1" enable-background="new 0 0 512.001 512.001" height="512" viewBox="0 0 512.001 512.001" width="512" xmlns="http://www.w3.org/2000/svg"><g clip-rule="evenodd" fill-rule="evenodd"><circle cx="256" cy="256" fill="#b8ecbb" r="206.001"/><path d="m256 50c113.771 0 206.001 92.229 206.001 206s-92.23 206.001-206.001 206.001-206-92.23-206-206.001 92.229-206 206-206zm246.001 206c0-135.862-110.138-246-246.001-246s-246 110.138-246 246 110.138 246.001 246 246.001 246.001-110.138 246.001-246.001z" fill="#88df8e"/><path d="m342.859 192.156c-2.664-10.779-8.253-20.428-15.869-28.043-10.865-10.865-25.87-17.609-42.39-17.609-15.341 0-29.374 5.816-40 15.346-10.626-9.531-24.659-15.346-40-15.346-15.358 0-29.405 5.829-40.036 15.378-6.915-6.203-15.264-10.833-24.469-13.312-10.657-2.848-21.605 3.484-24.453 14.141s3.483 21.605 14.141 24.453c4.308 1.16 8.051 3.729 10.696 7.175 2.582 3.363 4.121 7.583 4.121 12.164v120c0 11.046 8.954 20 20 20s20-8.954 20-20v-120c0-5.479 2.256-10.475 5.89-14.109s8.63-5.89 14.11-5.89c5.479 0 10.475 2.256 14.109 5.89s5.89 8.63 5.89 14.109v120c0 11.046 8.954 20 20 20s20-8.954 20-20v-120c0-5.479 2.256-10.475 5.89-14.109s8.63-5.89 14.11-5.89c5.479 0 10.475 2.256 14.109 5.89s5.89 8.63 5.89 14.109v120c0 14.122 4.981 27.175 13.282 37.495 8.396 10.438 20.263 18.03 33.847 21.026 10.744 2.373 21.377-4.413 23.75-15.156 2.373-10.744-4.413-21.377-15.156-23.75-1.443-.318-2.831-.798-4.146-1.42 15.429-4.526 35.002-15.05 46.278-32.104 48.259-72.986-8.277-141.83-59.594-120.438zm1.741 114.347v-55.222c.487-44.88 58.415-20.326 28.48 34.282-7.638 13.934-22.274 20.94-28.48 20.94z" fill="#88df8e"/></g><path d="m437.021 74.98c-48.353-48.351-112.64-74.98-181.021-74.98-52.031 0-102.125 15.534-144.868 44.924-4.551 3.129-5.703 9.355-2.574 13.906 3.13 4.552 9.356 5.7 13.906 2.574 39.393-27.087 85.569-41.404 133.536-41.404 130.131 0 236.001 105.869 236.001 236s-105.87 236.001-236.001 236.001-236-105.87-236-236.001c0-47.973 14.315-94.146 41.398-133.529 3.13-4.55 1.978-10.776-2.573-13.906-4.548-3.129-10.777-1.979-13.905 2.574-29.387 42.731-44.92 92.824-44.92 144.861 0 68.381 26.629 132.668 74.98 181.021 48.352 48.352 112.64 74.98 181.02 74.98 68.381 0 132.668-26.629 181.021-74.98 48.352-48.353 74.98-112.64 74.98-181.021 0-68.38-26.629-132.668-74.98-181.02z"/><path d="m424.613 374.782c4.66 2.963 10.842 1.584 13.804-3.075 21.971-34.567 33.584-74.578 33.584-115.707 0-57.695-22.468-111.938-63.265-152.735-40.798-40.797-95.04-63.265-152.736-63.265-57.695 0-111.938 22.468-152.735 63.265s-63.265 95.04-63.265 152.735c0 57.696 22.468 111.938 63.265 152.736 40.797 40.797 95.04 63.265 152.735 63.265 41.131 0 81.14-11.611 115.701-33.58 4.661-2.963 6.038-9.143 3.075-13.804-2.961-4.659-9.141-6.036-13.804-3.075-31.35 19.927-67.648 30.459-104.973 30.459-108.074 0-196-87.926-196-196.001s87.927-196 196.001-196c108.075 0 196.001 87.925 196.001 196 0 37.322-10.534 73.624-30.463 104.979-2.963 4.661-1.586 10.841 3.075 13.803z"/><path d="m82.054 92.053c2.258 0 4.53-.761 6.399-2.318 4.243-3.536 4.816-9.842 1.281-14.084-3.538-4.245-9.843-4.815-14.084-1.281l-.006.005c-4.243 3.536-4.813 9.839-1.278 14.082 1.978 2.372 4.822 3.596 7.688 3.596z"/><path d="m394.594 394.594-.005.005c-3.905 3.905-3.902 10.234.003 14.14 1.952 1.952 4.511 2.928 7.069 2.928 2.561 0 5.122-.977 7.075-2.93 3.905-3.905 3.905-10.237 0-14.143-3.906-3.905-10.236-3.905-14.142 0z"/><path d="m430.762 254.137c-.483-19.142-7.067-37.326-18.538-51.203-16.39-19.828-40.228-28.36-62.985-23.264-3.509-8.41-8.653-16.105-15.177-22.628-13.245-13.245-30.811-20.539-49.462-20.539-14.379 0-28.304 4.429-40 12.605-11.696-8.177-25.621-12.605-40-12.605-14.398 0-28.339 4.439-40.043 12.636-6.65-4.643-14.086-8.131-21.88-10.229-15.965-4.264-32.428 5.253-36.695 21.221-2.066 7.734-.997 15.812 3.011 22.742s10.475 11.886 18.19 13.948c2.108.567 4.014 1.849 5.364 3.608 1.343 1.749 2.053 3.85 2.053 6.074v120c0 16.543 13.458 30.001 30 30.001s30-13.458 30-30.001v-120c0-2.629 1.052-5.129 2.961-7.037 1.91-1.91 4.41-2.962 7.039-2.962 2.63 0 5.129 1.052 7.038 2.961 1.91 1.909 2.962 4.409 2.962 7.038v120c0 16.543 13.458 30.001 30 30.001s30-13.458 30-30.001v-120c0-2.629 1.052-5.129 2.961-7.037 1.91-1.91 4.41-2.962 7.039-2.962 2.63 0 5.129 1.052 7.038 2.961 1.91 1.909 2.962 4.409 2.962 7.038v120c0 15.803 5.501 31.345 15.49 43.763 9.971 12.397 23.993 21.107 39.482 24.524 2.165.478 4.326.707 6.456.707 13.729 0 26.135-9.526 29.215-23.472 1.724-7.805.306-15.813-3.994-22.55-.754-1.182-1.582-2.301-2.475-3.35 10.726-5.708 23.175-14.636 32.021-28.016 13.601-20.567 20.505-42.689 19.967-63.972zm-36.65 52.942c-9.718 14.698-27.423 24.113-40.751 28.023-3.983 1.169-6.831 4.677-7.155 8.814-.324 4.139 1.942 8.047 5.694 9.821 2.007.949 4.115 1.671 6.266 2.146 2.588.571 4.798 2.116 6.224 4.351 1.426 2.233 1.896 4.89 1.324 7.478-1.18 5.342-6.492 8.727-11.831 7.549-11.062-2.441-21.08-8.666-28.209-17.53-7.245-9.007-11.074-19.805-11.074-31.228v-120c0-7.971-3.132-15.493-8.819-21.181-5.688-5.687-13.209-8.818-21.181-8.818-7.97 0-15.492 3.132-21.181 8.818-5.688 5.688-8.819 13.21-8.819 21.181v120c0 5.515-4.486 10.001-10 10.001s-10-4.486-10-10.001v-120c0-7.971-3.132-15.493-8.819-21.181-5.688-5.687-13.209-8.818-21.181-8.818-7.97 0-15.492 3.132-21.181 8.818-5.688 5.688-8.819 13.21-8.819 21.181v120c0 5.515-4.486 10.001-10 10.001s-10-4.486-10-10.001v-120c0-6.668-2.141-12.979-6.188-18.253-4.01-5.224-9.701-9.038-16.047-10.747-2.573-.688-4.726-2.337-6.059-4.643-1.334-2.307-1.689-4.994-1.002-7.568.688-2.573 2.337-4.726 4.643-6.059 2.307-1.335 4.993-1.69 7.55-1.007 7.495 2.018 14.546 5.856 20.391 11.099 3.804 3.41 9.563 3.408 13.36-.004 9.201-8.267 21.047-12.818 33.353-12.818 12.292 0 24.126 4.543 33.323 12.791 3.799 3.408 9.555 3.408 13.354 0 9.197-8.248 21.031-12.791 33.323-12.791 13.309 0 25.853 5.214 35.32 14.682 6.479 6.478 11.054 14.56 13.231 23.37.7 2.832 2.603 5.218 5.208 6.53 2.604 1.313 5.653 1.423 8.348.301 17.566-7.321 36.764-1.847 50.102 14.29 14.797 17.902 22.97 52.583-2.698 91.403z"/><path d="m352.582 219.385c-5.324 1.939-17.733 8.917-17.981 31.788-.001.036-.001.072-.001.108v55.222c0 5.522 4.478 10 10 10 11.024 0 28.4-9.991 37.248-26.133 19.325-35.252 5.184-56.217.39-61.803-7.938-9.248-19.582-12.853-29.656-9.182zm11.729 61.372c-2.654 4.841-6.271 8.417-9.711 10.927v-40.346c.103-8.452 2.661-12.372 4.825-13.16 2.111-.771 5.251.636 7.636 3.415 5.522 6.433 7.699 20.101-2.75 39.164z"/></svg>